<?xml version="1.0" encoding="UTF-8" standalone="no"?>
<!-- Created with Inkscape (http://www.inkscape.org/) -->

<svg
   width="900mm"
   height="600mm"
   viewBox="0 0 899.99995 600"
   version="1.1"
   id="svg5"
   xml:space="preserve"
   xmlns="http://www.w3.org/2000/svg"
   xmlns:svg="http://www.w3.org/2000/svg"><defs
     id="defs2" /><g
     id="layer1"><rect
       style="fill:#e40204;fill-opacity:1;stroke-width:0;stroke-dasharray:none"
       id="rect4613"
       width="900"
       height="100"
       x="0"
       y="0" /><rect
       style="fill:#ff8c00;fill-opacity:1;stroke-width:0;stroke-dasharray:none"
       id="rect6067"
       width="900"
       height="100"
       x="0"
       y="100" /><rect
       style="fill:#ffec08;fill-opacity:1;stroke-width:0;stroke-dasharray:none"
       id="rect6069"
       width="900"
       height="100"
       x="0"
       y="200" /><rect
       style="fill:#008024;fill-opacity:1;stroke-width:0;stroke-dasharray:none"
       id="rect6071"
       width="900"
       height="100"
       x="0"
       y="300" /><rect
       style="fill:#750787;fill-opacity:1;stroke-width:0;stroke-dasharray:none"
       id="rect6073"
       width="900"
       height="100"
       x="0"
       y="500" /><rect
       style="fill:#004dff;fill-opacity:1;stroke-width:0;stroke-dasharray:none"
       id="rect6817"
       width="900"
       height="100"
       x="0"
       y="400" /><g
       id="g14326"
       transform="scale(0.15,0.15748031)"><path
         fill="#000000"
         d="M 0,0 H 1577 L 3341,1905 1577,3810 H 0 Z"
         id="path14293"
         style="fill:#232323;fill-opacity:1" /><path
         fill="#945516"
         d="M 0,0 H 1209 L 2973,1905 1209,3810 H 0 Z"
         id="path14295"
         style="fill:#905304;fill-opacity:1" /><path
         fill="#7bcce5"
         d="M 0,0 H 844 L 2608,1905 844,3810 H 0 Z"
         id="path14297"
         style="fill:#5bcefb;fill-opacity:1" /><path
         fill="#f4aec8"
         d="M 0,0 H 477 L 2241,1905 477,3810 H 0 Z"
         id="path14299"
         style="fill:#f5a9b8;fill-opacity:1" /><path
         fill="#ffffff"
         d="M 0,0 H 111 L 1874,1905 111,3810 H 0 Z"
         id="path14301" /><path
         fill="#fdd817"
         d="M 0,278 1507,1905 0,3532 Z"
         id="path14303"
         style="fill:#ffd900;fill-opacity:1" /><circle
         fill="none"
         stroke="#66338b"
         r="404"
         cx="556"
         cy="1905"
         stroke-width="95"
         id="circle14305"
         style="stroke:#7a00ab;stroke-opacity:1" /></g></g></svg>
