<?xml version="1.0" encoding="utf-8"?>
<!-- Generator: Adobe Illustrator 26.5.0, SVG Export Plug-In . SVG Version: 6.00 Build 0)  -->
<svg version="1.1"
	 id="Layer_1" xmlns:inkscape="http://www.inkscape.org/namespaces/inkscape" xmlns:cc="http://creativecommons.org/ns#" xmlns:rdf="http://www.w3.org/1999/02/22-rdf-syntax-ns#" xmlns:dc="http://purl.org/dc/elements/1.1/" xmlns:svg="http://www.w3.org/2000/svg"
	 xmlns="http://www.w3.org/2000/svg" xmlns:xlink="http://www.w3.org/1999/xlink" x="0px" y="0px" viewBox="0 0 1700.8 1133.9"
	 style="enable-background:new 0 0 1700.8 1133.9;" xml:space="preserve">
<style type="text/css">
	.st0{fill:none;stroke:#0000FF;stroke-linecap:round;stroke-linejoin:round;stroke-miterlimit:11.3386;}
	.st1{fill:none;stroke:#0000FF;stroke-miterlimit:10;}
	.st2{fill:none;stroke:#00FF00;stroke-miterlimit:10;}
	.st3{fill:none;stroke:#00FF00;stroke-linecap:round;stroke-linejoin:round;stroke-miterlimit:11.3386;}
	.st4{fill:none;stroke:#FF0000;stroke-miterlimit:10;}
</style>
<path class="st0" d="M314.2,973.6v17.6c0,0.3,0.3,0,0,0h-18.1c-0.3,0,0,0.3,0,0V956c0-0.3-0.3,0,0,0h18.1c0.3,0,0-0.3,0,0V973.6z"/>
<path class="st0" d="M314.2,905.5v17.6c0,0.3,0.3,0,0,0h-18.1c-0.3,0,0,0.3,0,0V888c0-0.3-0.3,0,0,0h18.1c0.3,0,0-0.3,0,0V905.5z"/>
<path class="st0" d="M314.2,837.5v17.6c0,0.3,0.3,0,0,0h-18.1c-0.3,0,0,0.3,0,0v-35.1c0-0.3-0.3,0,0,0h18.1c0.3,0,0-0.3,0,0V837.5z"
	/>
<path class="st0" d="M314.2,769.5V787c0,0.3,0.3,0,0,0h-18.1c-0.3,0,0,0.3,0,0v-35.1c0-0.3-0.3,0,0,0h18.1c0.3,0,0-0.3,0,0V769.5z"
	/>
<path class="st0" d="M314.2,701.4V719c0,0.3,0.3,0,0,0h-18.1c-0.3,0,0,0.3,0,0v-35.1c0-0.3-0.3,0,0,0h18.1c0.3,0,0-0.3,0,0V701.4z"
	/>
<path class="st0" d="M314.2,633.4V651c0,0.3,0.3,0,0,0h-18.1c-0.3,0,0,0.3,0,0v-35.1c0-0.3-0.3,0,0,0h18.1c0.3,0,0-0.3,0,0V633.4z"
	/>
<path class="st0" d="M988.2,1029.8V576.3v-17c0-0.2-0.1-0.3-0.3-0.3h-44.5c-0.2,0-0.3,0.1-0.3,0.3V576c0,0.3,0.3,0,0,0h-35.1
	c-0.3,0,0,0.3,0,0v-16.7c0-0.2-0.1-0.3-0.3-0.3h-32.3c-0.2,0-0.3,0.1-0.3,0.3V576c0,0.3,0.3,0,0,0h-35.1c-0.3,0,0,0.3,0,0v-16.7
	c0-0.2-0.1-0.3-0.3-0.3h-32.3c-0.2,0-0.3,0.1-0.3,0.3V576c0,0.3,0.3,0,0,0h-35.1c-0.3,0,0,0.3,0,0v-16.7c0-0.2-0.1-0.3-0.3-0.3
	h-32.3c-0.2,0-0.3,0.1-0.3,0.3V576c0,0.3,0.3,0,0,0h-35.1c-0.3,0,0,0.3,0,0v-16.7c0-0.2-0.1-0.3-0.3-0.3h-32.3
	c-0.2,0-0.3,0.1-0.3,0.3V576c0,0.3,0.3,0,0,0h-35.1c-0.3,0,0,0.3,0,0v-16.7c0-0.2-0.1-0.3-0.3-0.3h-32.3c-0.2,0-0.3,0.1-0.3,0.3V576
	c0,0.3,0.3,0,0,0h-35.1c-0.3,0,0,0.3,0,0v-16.7c0-0.2-0.1-0.3-0.3-0.3h-32.3c-0.2,0-0.3,0.1-0.3,0.3V576c0,0.3,0.3,0,0,0h-35.1
	c-0.3,0,0,0.3,0,0v-16.7c0-0.2-0.1-0.3-0.3-0.3h-32.3c-0.2,0-0.3,0.1-0.3,0.3V576c0,0.3,0.3,0,0,0h-35.1c-0.3,0,0,0.3,0,0v-16.7
	c0-0.2-0.1-0.3-0.3-0.3h-32.3c-0.2,0-0.3,0.1-0.3,0.3V576c0,0.3,0.3,0,0,0h-35.1c-0.3,0,0,0.3,0,0v-16.7c0-0.2-0.1-0.3-0.3-0.3
	h-32.3c-0.2,0-0.3,0.1-0.3,0.3V576c0,0.3,0.3,0,0,0h-35.1c-0.3,0,0,0.3,0,0v-16.7c0-0.2-0.1-0.3-0.3-0.3h-32.3
	c-0.2,0-0.3,0.1-0.3,0.3V576c0,0.3,0.3,0,0,0h-35.1c-0.3,0,0,0.3,0,0v-16.7c0-0.2-0.1-0.3-0.3-0.3H195c-0.2,0-0.3,0.1-0.3,0.3V576
	c0,0.3,0.3,0,0,0h-35.1c-0.3,0,0,0.3,0,0v-16.7c0-0.2-0.1-0.3-0.3-0.3H127c-0.2,0-0.3,0.1-0.3,0.3V576c0,0.3,0.3,0,0,0H91.6
	c-0.3,0,0,0.3,0,0v-16.7c0-0.2-0.1-0.3-0.3-0.3H46.8c-0.2,0-0.3,0.1-0.3,0.3v17v453.5v17c0,0.2,0.1,0.3,0.3,0.3h44.5
	c0.2,0,0.3-0.1,0.3-0.3v-16.7c0-0.3-0.3,0,0,0h35.1c0.3,0,0-0.3,0,0v16.7c0,0.2,0.1,0.3,0.3,0.3h32.3c0.2,0,0.3-0.1,0.3-0.3v-16.7
	c0-0.3-0.3,0,0,0h35.1c0.3,0,0-0.3,0,0v16.7c0,0.2,0.1,0.3,0.3,0.3h32.3c0.2,0,0.3-0.1,0.3-0.3v-16.7c0-0.3-0.3,0,0,0h35.1
	c0.3,0,0-0.3,0,0v16.7c0,0.2,0.1,0.3,0.3,0.3h32.3c0.2,0,0.3-0.1,0.3-0.3v-16.7c0-0.3-0.3,0,0,0h35.1c0.3,0,0-0.3,0,0v16.7
	c0,0.2,0.1,0.3,0.3,0.3h32.3c0.2,0,0.3-0.1,0.3-0.3v-16.7c0-0.3-0.3,0,0,0h35.1c0.3,0,0-0.3,0,0v16.7c0,0.2,0.1,0.3,0.3,0.3h32.3
	c0.2,0,0.3-0.1,0.3-0.3v-16.7c0-0.3-0.3,0,0,0h35.1c0.3,0,0-0.3,0,0v16.7c0,0.2,0.1,0.3,0.3,0.3h32.3c0.2,0,0.3-0.1,0.3-0.3v-16.7
	c0-0.3-0.3,0,0,0h35.1c0.3,0,0-0.3,0,0v16.7c0,0.2,0.1,0.3,0.3,0.3h32.3c0.2,0,0.3-0.1,0.3-0.3v-16.7c0-0.3-0.3,0,0,0h35.1
	c0.3,0,0-0.3,0,0v16.7c0,0.2,0.1,0.3,0.3,0.3h32.3c0.2,0,0.3-0.1,0.3-0.3v-16.7c0-0.3-0.3,0,0,0H671c0.3,0,0-0.3,0,0v16.7
	c0,0.2,0.1,0.3,0.3,0.3h32.3c0.2,0,0.3-0.1,0.3-0.3v-16.7c0-0.3-0.3,0,0,0H739c0.3,0,0-0.3,0,0v16.7c0,0.2,0.1,0.3,0.3,0.3h32.3
	c0.2,0,0.3-0.1,0.3-0.3v-16.7c0-0.3-0.3,0,0,0H807c0.3,0,0-0.3,0,0v16.7c0,0.2,0.1,0.3,0.3,0.3h32.3c0.2,0,0.3-0.1,0.3-0.3v-16.7
	c0-0.3-0.3,0,0,0h35.1c0.3,0,0-0.3,0,0v16.7c0,0.2,0.1,0.3,0.3,0.3h32.3c0.2,0,0.3-0.1,0.3-0.3v-16.7c0-0.3-0.3,0,0,0h35.1
	c0.3,0,0-0.3,0,0v16.7c0,0.2,0.1,0.3,0.3,0.3h44.5c0.2,0,0.3-0.1,0.3-0.3V1029.8z"/>
<g id="p-3">
	<path class="st0" d="M1121.8,552.3h39.4c0.3,0,0-0.3,0,0V569c0,0.2,0.1,0.3,0.3,0.3h34c0.2,0,0.3-0.1,0.3-0.3v-16.7
		c0-0.3-0.3,0,0,0h33.4c0.3,0,0-0.3,0,0V569c0,0.2,0.1,0.3,0.3,0.3h34c0.2,0,0.3-0.1,0.3-0.3v-16.7c0-0.3-0.3,0,0,0h33.4
		c0.3,0,0-0.3,0,0V569c0,0.2,0.1,0.3,0.3,0.3h34c0.2,0,0.3-0.1,0.3-0.3v-16.7c0-0.3-0.3,0,0,0h33.4c0.3,0,0-0.3,0,0V569
		c0,0.2,0.1,0.3,0.3,0.3h34c0.2,0,0.3-0.1,0.3-0.3v-16.7c0-0.3-0.3,0,0,0h33.4c0.3,0,0-0.3,0,0V569c0,0.2,0.1,0.3,0.3,0.3h34
		c0.2,0,0.3-0.1,0.3-0.3v-16.7c0-0.3-0.3,0,0,0h33.4c0.3,0,0-0.3,0,0V569c0,0.2,0.1,0.3,0.3,0.3h34c0.2,0,0.3-0.1,0.3-0.3v-16.7
		c0-0.3-0.3,0,0,0h39.4c0.2,0,0.3-0.1,0.3-0.3v-39.4c0-0.3-0.3,0,0,0h16.7c0.2,0,0.3-0.1,0.3-0.3v-34c0-0.2-0.1-0.3-0.3-0.3h-16.7
		c-0.3,0,0,0.3,0,0v-33.4c0-0.3-0.3,0,0,0h16.7c0.2,0,0.3-0.1,0.3-0.3v-34c0-0.2-0.1-0.3-0.3-0.3h-16.7c-0.3,0,0,0.3,0,0v-33.4
		c0-0.3-0.3,0,0,0h16.7c0.2,0,0.3-0.1,0.3-0.3v-34c0-0.2-0.1-0.3-0.3-0.3h-16.7c-0.3,0,0,0.3,0,0v-33.4c0-0.3-0.3,0,0,0h16.7
		c0.2,0,0.3-0.1,0.3-0.3v-34c0-0.2-0.1-0.3-0.3-0.3h-16.7c-0.3,0,0,0.3,0,0v-33.4c0-0.3-0.3,0,0,0h16.7c0.2,0,0.3-0.1,0.3-0.3v-34
		c0-0.2-0.1-0.3-0.3-0.3h-16.7c-0.3,0,0,0.3,0,0v-33.4c0-0.3-0.3,0,0,0h16.7c0.2,0,0.3-0.1,0.3-0.3v-34c0-0.2-0.1-0.3-0.3-0.3h-16.7
		c-0.3,0,0,0.3,0,0V98.4c0-0.2-0.1-0.3-0.3-0.3h-39.4c-0.3,0,0,0.3,0,0V81.4c0-0.2-0.1-0.3-0.3-0.3h-34c-0.2,0-0.3,0.1-0.3,0.3v16.7
		c0,0.3,0.3,0,0,0h-33.4c-0.3,0,0,0.3,0,0V81.4c0-0.2-0.1-0.3-0.3-0.3h-34c-0.2,0-0.3,0.1-0.3,0.3v16.7c0,0.3,0.3,0,0,0h-33.4
		c-0.3,0,0,0.3,0,0V81.4c0-0.2-0.1-0.3-0.3-0.3h-34c-0.2,0-0.3,0.1-0.3,0.3v16.7c0,0.3,0.3,0,0,0h-33.4c-0.3,0,0,0.3,0,0V81.4
		c0-0.2-0.1-0.3-0.3-0.3h-34c-0.2,0-0.3,0.1-0.3,0.3v16.7c0,0.3,0.3,0,0,0h-33.4c-0.3,0,0,0.3,0,0V81.4c0-0.2-0.1-0.3-0.3-0.3h-34
		c-0.2,0-0.3,0.1-0.3,0.3v16.7c0,0.3,0.3,0,0,0h-33.4c-0.3,0,0,0.3,0,0V81.4c0-0.2-0.1-0.3-0.3-0.3h-34c-0.2,0-0.3,0.1-0.3,0.3v16.7
		c0,0.3,0.3,0,0,0h-39.4c-0.2,0-0.3,0.1-0.3,0.3v39.4c0,0.3,0.3,0,0,0h-16.7c-0.2,0-0.3,0.1-0.3,0.3v34c0,0.2,0.1,0.3,0.3,0.3h16.7
		c0.3,0,0-0.3,0,0v33.4c0,0.3,0.3,0,0,0h-16.7c-0.2,0-0.3,0.1-0.3,0.3v34c0,0.2,0.1,0.3,0.3,0.3h16.7c0.3,0,0-0.3,0,0v33.4
		c0,0.3,0.3,0,0,0h-16.7c-0.2,0-0.3,0.1-0.3,0.3v34c0,0.2,0.1,0.3,0.3,0.3h16.7c0.3,0,0-0.3,0,0v33.4c0,0.3,0.3,0,0,0h-16.7
		c-0.2,0-0.3,0.1-0.3,0.3v34c0,0.2,0.1,0.3,0.3,0.3h16.7c0.3,0,0-0.3,0,0V410c0,0.3,0.3,0,0,0h-16.7c-0.2,0-0.3,0.1-0.3,0.3v34
		c0,0.2,0.1,0.3,0.3,0.3h16.7c0.3,0,0-0.3,0,0V478c0,0.3,0.3,0,0,0h-16.7c-0.2,0-0.3,0.1-0.3,0.3v34c0,0.2,0.1,0.3,0.3,0.3h16.7
		c0.3,0,0-0.3,0,0V552C1121.5,552.1,1121.6,552.3,1121.8,552.3z"/>
</g>
<circle id="hole_x5F_2" class="st1" cx="1440.7" cy="325.2" r="5.7"/>
<circle id="hole_x5F_1" class="st1" cx="1412.3" cy="325.2" r="5.7"/>
<circle id="hole_x5F_1_00000072279789068780571650000011613813873466918555_" class="st1" cx="1270.6" cy="211.7" r="5.7"/>
<line class="st1" x1="1363.1" y1="232.7" x2="1363.8" y2="232.7"/>
<rect x="546" y="54.1" transform="matrix(-1 -1.224647e-16 1.224647e-16 -1 1539.7794 556.1572)" class="st1" width="447.9" height="447.9"/>
<circle id="hole_x5F_2_00000136388942515523209490000004884469706659218594_" class="st1" cx="677.8" cy="278.1" r="5.7"/>
<circle id="hole_x5F_1_00000093166481645918983420000016733477297389190034_" class="st1" cx="706.1" cy="278.1" r="5.7"/>
<rect x="59.6" y="56.7" transform="matrix(-1 -1.224647e-16 1.224647e-16 -1 567.081 561.2596)" class="st1" width="447.9" height="447.9"/>
<circle class="st2" cx="283.5" cy="280.6" r="223.9"/>
<line class="st2" x1="59.6" y1="56.7" x2="283.5" y2="504.6"/>
<line class="st2" x1="507.5" y1="56.7" x2="283.5" y2="504.6"/>
<line class="st2" x1="59.6" y1="504.6" x2="283.5" y2="56.7"/>
<line class="st2" x1="507.5" y1="504.6" x2="283.5" y2="56.7"/>
<line class="st2" x1="59.6" y1="504.6" x2="507.5" y2="280.6"/>
<line class="st2" x1="59.6" y1="56.7" x2="507.5" y2="280.6"/>
<line class="st2" x1="507.5" y1="56.7" x2="59.6" y2="280.6"/>
<line class="st2" x1="507.5" y1="504.6" x2="59.6" y2="280.6"/>
<line class="st2" x1="171.6" y1="280.6" x2="283.5" y2="392.6"/>
<line class="st2" x1="358.2" y1="355.3" x2="171.6" y2="280.6"/>
<line class="st2" x1="395.5" y1="280.6" x2="171.6" y2="280.6"/>
<line class="st2" x1="358.2" y1="206" x2="171.6" y2="280.6"/>
<line class="st2" x1="283.5" y1="168.7" x2="171.6" y2="280.6"/>
<line class="st2" x1="208.9" y1="206" x2="208.9" y2="355.3"/>
<line class="st2" x1="283.5" y1="392.6" x2="208.9" y2="206"/>
<line class="st2" x1="358.2" y1="355.3" x2="208.9" y2="206"/>
<line class="st2" x1="395.5" y1="280.6" x2="208.9" y2="206"/>
<line class="st2" x1="358.2" y1="206" x2="208.9" y2="206"/>
<path class="st2" d="M283.5,168.7l-74.6,186.6"/>
<line class="st2" x1="283.5" y1="392.6" x2="283.5" y2="168.7"/>
<line class="st2" x1="358.2" y1="355.3" x2="283.5" y2="168.7"/>
<line class="st2" x1="395.5" y1="280.6" x2="283.5" y2="168.7"/>
<line class="st2" x1="358.2" y1="206" x2="208.9" y2="355.3"/>
<line class="st2" x1="283.5" y1="392.6" x2="358.2" y2="206"/>
<line class="st2" x1="358.2" y1="355.3" x2="358.2" y2="206"/>
<line class="st2" x1="395.5" y1="280.6" x2="208.9" y2="355.3"/>
<line class="st2" x1="283.5" y1="392.6" x2="395.5" y2="280.6"/>
<line class="st2" x1="208.9" y1="355.3" x2="358.2" y2="355.3"/>
<line class="st2" x1="283.5" y1="504.6" x2="507.5" y2="280.6"/>
<line class="st2" x1="283.5" y1="56.7" x2="507.5" y2="280.6"/>
<line class="st2" x1="59.6" y1="280.6" x2="283.5" y2="56.7"/>
<line class="st0" x1="431.7" y1="576" x2="431.7" y2="1030.1"/>
<line class="st3" x1="46.5" y1="803.1" x2="91.6" y2="576"/>
<line class="st3" x1="159.6" y1="576" x2="46.5" y2="803.1"/>
<line class="st3" x1="227.6" y1="576" x2="46.5" y2="803.1"/>
<line class="st3" x1="295.7" y1="576" x2="46.5" y2="803.1"/>
<line class="st3" x1="363.7" y1="576" x2="46.5" y2="803.1"/>
<line class="st3" x1="91.6" y1="1030.1" x2="46.5" y2="803.1"/>
<line class="st3" x1="159.6" y1="1030.1" x2="46.5" y2="803.1"/>
<line class="st3" x1="227.6" y1="1030.1" x2="46.5" y2="803.1"/>
<line class="st3" x1="295.7" y1="1030.1" x2="46.5" y2="803.1"/>
<line class="st3" x1="363.7" y1="1030.1" x2="46.5" y2="803.1"/>
<line class="st1" x1="1165.8" y1="781.1" x2="1240.4" y2="818.4"/>
<line class="st1" x1="1277.8" y1="893" x2="1240.4" y2="818.4"/>
<line class="st1" x1="1240.4" y1="967.7" x2="1277.8" y2="893"/>
<line class="st1" x1="1165.8" y1="1005" x2="1240.4" y2="967.7"/>
<line class="st1" x1="1091.1" y1="967.7" x2="1165.8" y2="1005"/>
<line class="st1" x1="1053.8" y1="893" x2="1091.1" y2="967.7"/>
<line class="st1" x1="1091.1" y1="818.4" x2="1053.8" y2="893"/>
<line class="st1" x1="1165.8" y1="781.1" x2="1091.1" y2="818.4"/>
<rect x="1091.1" y="818.4" transform="matrix(-1.836970e-16 1 -1 -1.836970e-16 2058.8135 -272.752)" class="st2" width="149.3" height="149.3"/>
<rect x="1086.6" y="813.9" transform="matrix(0.7071 0.7071 -0.7071 0.7071 972.918 -562.7703)" class="st2" width="158.3" height="158.3"/>
<line class="st1" x1="1165.8" y1="764.3" x2="1251.6" y2="807.2"/>
<line class="st1" x1="1294.5" y1="893" x2="1251.6" y2="807.2"/>
<line class="st1" x1="1251.6" y1="978.9" x2="1294.5" y2="893"/>
<line class="st1" x1="1165.8" y1="1021.8" x2="1251.6" y2="978.9"/>
<line class="st1" x1="1079.9" y1="978.9" x2="1165.8" y2="1021.8"/>
<line class="st1" x1="1037" y1="893" x2="1079.9" y2="978.9"/>
<line class="st1" x1="1079.9" y1="807.2" x2="1037" y2="893"/>
<line class="st1" x1="1165.8" y1="764.3" x2="1079.9" y2="807.2"/>
<line class="st1" x1="1165.8" y1="747.5" x2="1262.8" y2="796"/>
<line class="st1" x1="1311.3" y1="893" x2="1262.8" y2="796"/>
<line class="st1" x1="1262.8" y1="990.1" x2="1311.3" y2="893"/>
<line class="st1" x1="1165.8" y1="1038.6" x2="1262.8" y2="990.1"/>
<line class="st1" x1="1068.7" y1="990.1" x2="1165.8" y2="1038.6"/>
<line class="st1" x1="1020.2" y1="893" x2="1068.7" y2="990.1"/>
<line class="st1" x1="1068.7" y1="796" x2="1020.2" y2="893"/>
<line class="st1" x1="1165.8" y1="747.5" x2="1068.7" y2="796"/>
<line class="st2" x1="1294.5" y1="893" x2="1311.3" y2="893"/>
<line class="st2" x1="1262.8" y1="796" x2="1251.6" y2="807.2"/>
<line class="st2" x1="1165.8" y1="747.5" x2="1165.8" y2="764.3"/>
<line class="st2" x1="1068.7" y1="796" x2="1079.9" y2="807.2"/>
<line class="st2" x1="1020.2" y1="893" x2="1037" y2="893"/>
<line class="st2" x1="1079.9" y1="978.9" x2="1068.7" y2="990.1"/>
<line class="st2" x1="1165.8" y1="1021.8" x2="1165.8" y2="1038.6"/>
<line class="st2" x1="1251.6" y1="978.9" x2="1262.8" y2="990.1"/>
<line class="st2" x1="1165.8" y1="1005" x2="1165.8" y2="781.1"/>
<line class="st2" x1="1277.8" y1="893" x2="1053.8" y2="893"/>
<line class="st2" x1="1091.1" y1="818.4" x2="1240.4" y2="967.7"/>
<line class="st2" x1="1240.4" y1="818.4" x2="1091.1" y2="967.7"/>
<line class="st4" x1="769.9" y1="709.2" x2="832.5" y2="740.5"/>
<line class="st4" x1="863.8" y1="803.1" x2="832.5" y2="740.5"/>
<line class="st4" x1="832.5" y1="865.6" x2="863.8" y2="803.1"/>
<line class="st4" x1="769.9" y1="896.9" x2="832.5" y2="865.6"/>
<line class="st4" x1="707.3" y1="865.6" x2="769.9" y2="896.9"/>
<line class="st4" x1="676" y1="803.1" x2="707.3" y2="865.6"/>
<line class="st4" x1="707.3" y1="740.5" x2="676" y2="803.1"/>
<line class="st4" x1="769.9" y1="709.2" x2="707.3" y2="740.5"/>
<line class="st4" x1="769.9" y1="695.1" x2="841.9" y2="731.1"/>
<line class="st4" x1="877.9" y1="803.1" x2="841.9" y2="731.1"/>
<line class="st4" x1="841.9" y1="875" x2="877.9" y2="803.1"/>
<line class="st4" x1="769.9" y1="911" x2="841.9" y2="875"/>
<line class="st4" x1="697.9" y1="875" x2="769.9" y2="911"/>
<line class="st4" x1="661.9" y1="803.1" x2="697.9" y2="875"/>
<line class="st4" x1="697.9" y1="731.1" x2="661.9" y2="803.1"/>
<line class="st4" x1="769.9" y1="695.1" x2="697.9" y2="731.1"/>
<line class="st4" x1="769.9" y1="681" x2="851.3" y2="721.7"/>
<line class="st4" x1="891.9" y1="803.1" x2="851.3" y2="721.7"/>
<line class="st4" x1="851.3" y1="884.4" x2="891.9" y2="803.1"/>
<line class="st4" x1="769.9" y1="925.1" x2="851.3" y2="884.4"/>
<line class="st4" x1="688.5" y1="884.4" x2="769.9" y2="925.1"/>
<line class="st4" x1="647.8" y1="803.1" x2="688.5" y2="884.4"/>
<line class="st4" x1="688.5" y1="721.7" x2="647.8" y2="803.1"/>
<line class="st4" x1="769.9" y1="681" x2="688.5" y2="721.7"/>
<rect x="1353" y="670" class="st1" width="289.8" height="371.4"/>
</svg>
