<?xml version="1.0" encoding="utf-8"?>
<!-- Generator: Adobe Illustrator 26.5.0, SVG Export Plug-In . SVG Version: 6.00 Build 0)  -->
<svg version="1.1" id="Layer_1" xmlns="http://www.w3.org/2000/svg" xmlns:xlink="http://www.w3.org/1999/xlink" x="0px" y="0px"
	 viewBox="0 0 283.5 283.5" style="enable-background:new 0 0 283.5 283.5;" xml:space="preserve">
<style type="text/css">
	.st0{fill:#722A83;}
	.st1{fill:#405FAB;}
	.st2{fill:#0D8140;}
	.st3{fill:#FDEC05;}
	.st4{fill:#F68C1F;}
	.st5{fill:#E31E26;}
	.st6{fill:none;}
	.st7{fill:#F7A9B7;}
	.st8{fill:#61CDF6;}
</style>
<path class="st0" d="M0,252c31.5,31.5,31.5,31.5,31.5,31.5H0V252z"/>
<path class="st1" d="M0,220.5c63,63,63,63,63,63H31.5L0,252V220.5z"/>
<path class="st2" d="M0,189c94.5,94.5,94.5,94.5,94.5,94.5H63l-63-63V189z"/>
<path class="st3" d="M0,157.5c126,126,126,126,126,126H94.5L0,189V157.5z"/>
<polygon class="st4" points="0,126 157.5,283.5 126,283.5 0,157.5 "/>
<polygon class="st5" points="0,94.5 189,283.5 157.5,283.5 0,126 "/>
<path class="st6" d="M0,63c220.5,220.5,220.5,220.5,220.5,220.5H189L0,94.5L0,63z"/>
<path class="st7" d="M0,31.5c252,252,252,252,252,252h-31.5L0,63V31.5z"/>
<polygon class="st8" points="0,0 283.5,283.5 252,283.5 0,31.5 "/>
</svg>
