<?xml version="1.0" encoding="utf-8"?>
<!-- Generator: Adobe Illustrator 26.5.0, SVG Export Plug-In . SVG Version: 6.00 Build 0)  -->
<svg version="1.1"
	 id="Layer_1" xmlns:inkscape="http://www.inkscape.org/namespaces/inkscape" xmlns:cc="http://creativecommons.org/ns#" xmlns:rdf="http://www.w3.org/1999/02/22-rdf-syntax-ns#" xmlns:dc="http://purl.org/dc/elements/1.1/" xmlns:svg="http://www.w3.org/2000/svg"
	 xmlns="http://www.w3.org/2000/svg" xmlns:xlink="http://www.w3.org/1999/xlink" x="0px" y="0px" viewBox="0 0 1700.8 1133.9"
	 style="enable-background:new 0 0 1700.8 1133.9;" xml:space="preserve">
<style type="text/css">
	.st0{fill:none;stroke:#0000FF;stroke-linecap:round;stroke-linejoin:round;stroke-miterlimit:11.3386;}
	.st1{fill:none;stroke:#0000FF;stroke-miterlimit:10;}
	.st2{fill:none;stroke:#00FF00;stroke-linecap:round;stroke-linejoin:round;stroke-miterlimit:11.3386;}
</style>
<path class="st0" d="M595,298.9h-17.6c-0.3,0,0,0.3,0,0v-18.1c0-0.3-0.3,0,0,0h35.1c0.3,0,0-0.3,0,0v18.1c0,0.3,0.3,0,0,0H595z"/>
<path class="st0" d="M663.1,298.9h-17.6c-0.3,0,0,0.3,0,0v-18.1c0-0.3-0.3,0,0,0h35.1c0.3,0,0-0.3,0,0v18.1c0,0.3,0.3,0,0,0H663.1z"
	/>
<path class="st0" d="M731.1,298.9h-17.6c-0.3,0,0,0.3,0,0v-18.1c0-0.3-0.3,0,0,0h35.1c0.3,0,0-0.3,0,0v18.1c0,0.3,0.3,0,0,0H731.1z"
	/>
<path class="st0" d="M799.1,298.9h-17.6c-0.3,0,0,0.3,0,0v-18.1c0-0.3-0.3,0,0,0h35.1c0.3,0,0-0.3,0,0v18.1c0,0.3,0.3,0,0,0H799.1z"
	/>
<path class="st0" d="M867.2,298.9h-17.6c-0.3,0,0,0.3,0,0v-18.1c0-0.3-0.3,0,0,0h35.1c0.3,0,0-0.3,0,0v18.1c0,0.3,0.3,0,0,0H867.2z"
	/>
<path class="st0" d="M935.2,298.9h-17.6c-0.3,0,0,0.3,0,0v-18.1c0-0.3-0.3,0,0,0h35.1c0.3,0,0-0.3,0,0v18.1c0,0.3,0.3,0,0,0H935.2z"
	/>
<path class="st0" d="M538.8,972.9l453.5,0h17c0.2,0,0.3-0.1,0.3-0.3v-44.5c0-0.2-0.1-0.3-0.3-0.3h-16.7c-0.3,0,0,0.3,0,0v-35.1
	c0-0.3-0.3,0,0,0h16.7c0.2,0,0.3-0.1,0.3-0.3V860c0-0.2-0.1-0.3-0.3-0.3h-16.7c-0.3,0,0,0.3,0,0v-35.1c0-0.3-0.3,0,0,0h16.7
	c0.2,0,0.3-0.1,0.3-0.3V792c0-0.2-0.1-0.3-0.3-0.3l-16.7,0c-0.3,0,0,0.3,0,0l0-35.1c0-0.3-0.3,0,0,0h16.7c0.2,0,0.3-0.1,0.3-0.3V724
	c0-0.2-0.1-0.3-0.3-0.3h-16.7c-0.3,0,0,0.3,0,0v-35.1c0-0.3-0.3,0,0,0h16.7c0.2,0,0.3-0.1,0.3-0.3v-32.3c0-0.2-0.1-0.3-0.3-0.3
	h-16.7c-0.3,0,0,0.3,0,0v-35.1c0-0.3-0.3,0,0,0h16.7c0.2,0,0.3-0.1,0.3-0.3v-32.3c0-0.2-0.1-0.3-0.3-0.3h-16.7c-0.3,0,0,0.3,0,0
	v-35.1c0-0.3-0.3,0,0,0h16.7c0.2,0,0.3-0.1,0.3-0.3l0-32.3c0-0.2-0.1-0.3-0.3-0.3h-16.7c-0.3,0,0,0.3,0,0v-35.1c0-0.3-0.3,0,0,0
	h16.7c0.2,0,0.3-0.1,0.3-0.3v-32.3c0-0.2-0.1-0.3-0.3-0.3h-16.7c-0.3,0,0,0.3,0,0v-35.1c0-0.3-0.3,0,0,0h16.7c0.2,0,0.3-0.1,0.3-0.3
	v-32.3c0-0.2-0.1-0.3-0.3-0.3h-16.7c-0.3,0,0,0.3,0,0v-35.1c0-0.3-0.3,0,0,0h16.7c0.2,0,0.3-0.1,0.3-0.3v-32.3
	c0-0.2-0.1-0.3-0.3-0.3h-16.7c-0.3,0,0,0.3,0,0v-35.1c0-0.3-0.3,0,0,0h16.7c0.2,0,0.3-0.1,0.3-0.3v-32.3c0-0.2-0.1-0.3-0.3-0.3
	h-16.7c-0.3,0,0,0.3,0,0v-35.1c0-0.3-0.3,0,0,0h16.7c0.2,0,0.3-0.1,0.3-0.3v-32.3c0-0.2-0.1-0.3-0.3-0.3h-16.7c-0.3,0,0,0.3,0,0
	l0-35.1c0-0.3-0.3,0,0,0h16.7c0.2,0,0.3-0.1,0.3-0.3v-32.3c0-0.2-0.1-0.3-0.3-0.3h-16.7c-0.3,0,0,0.3,0,0V76.3c0-0.3-0.3,0,0,0h16.7
	c0.2,0,0.3-0.1,0.3-0.3V31.5c0-0.2-0.1-0.3-0.3-0.3h-17l-453.5,0h-17c-0.2,0-0.3,0.1-0.3,0.3V76c0,0.2,0.1,0.3,0.3,0.3h16.7
	c0.3,0,0-0.3,0,0v35.1c0,0.3,0.3,0,0,0h-16.7c-0.2,0-0.3,0.1-0.3,0.3V144c0,0.2,0.1,0.3,0.3,0.3h16.7c0.3,0,0-0.3,0,0v35.1
	c0,0.3,0.3,0,0,0h-16.7c-0.2,0-0.3,0.1-0.3,0.3V212c0,0.2,0.1,0.3,0.3,0.3h16.7c0.3,0,0-0.3,0,0v35.1c0,0.3,0.3,0,0,0h-16.7
	c-0.2,0-0.3,0.1-0.3,0.3v32.3c0,0.2,0.1,0.3,0.3,0.3h16.7c0.3,0,0-0.3,0,0v35.1c0,0.3,0.3,0,0,0h-16.7c-0.2,0-0.3,0.1-0.3,0.3v32.3
	c0,0.2,0.1,0.3,0.3,0.3h16.7c0.3,0,0-0.3,0,0v35.1c0,0.3,0.3,0,0,0l-16.7,0c-0.2,0-0.3,0.1-0.3,0.3l0,32.3c0,0.2,0.1,0.3,0.3,0.3
	h16.7c0.3,0,0-0.3,0,0v35.1c0,0.3,0.3,0,0,0h-16.7c-0.2,0-0.3,0.1-0.3,0.3v32.3c0,0.2,0.1,0.3,0.3,0.3h16.7c0.3,0,0-0.3,0,0l0,35.1
	c0,0.3,0.3,0,0,0h-16.7c-0.2,0-0.3,0.1-0.3,0.3v32.3c0,0.2,0.1,0.3,0.3,0.3l16.7,0c0.3,0,0-0.3,0,0v35.1c0,0.3,0.3,0,0,0h-16.7
	c-0.2,0-0.3,0.1-0.3,0.3v32.3c0,0.2,0.1,0.3,0.3,0.3h16.7c0.3,0,0-0.3,0,0v35.1c0,0.3,0.3,0,0,0h-16.7c-0.2,0-0.3,0.1-0.3,0.3v32.3
	c0,0.2,0.1,0.3,0.3,0.3h16.7c0.3,0,0-0.3,0,0v35.1c0,0.3,0.3,0,0,0h-16.7c-0.2,0-0.3,0.1-0.3,0.3v32.3c0,0.2,0.1,0.3,0.3,0.3h16.7
	c0.3,0,0-0.3,0,0v35.1c0,0.3,0.3,0,0,0h-16.7c-0.2,0-0.3,0.1-0.3,0.3v32.3c0,0.2,0.1,0.3,0.3,0.3h16.7c0.3,0,0-0.3,0,0v35.1
	c0,0.3,0.3,0,0,0h-16.7c-0.2,0-0.3,0.1-0.3,0.3v32.3c0,0.2,0.1,0.3,0.3,0.3h16.7c0.3,0,0-0.3,0,0v35.1c0,0.3,0.3,0,0,0h-16.7
	c-0.2,0-0.3,0.1-0.3,0.3v44.5c0,0.2,0.1,0.3,0.3,0.3H538.8z"/>
<path class="st0" d="M92.8,298.9H75.2c-0.3,0,0,0.3,0,0v-18.1c0-0.3-0.3,0,0,0h35.1c0.3,0,0-0.3,0,0v18.1c0,0.3,0.3,0,0,0H92.8z"/>
<path class="st0" d="M160.8,298.9l-17.6,0c-0.3,0,0,0.3,0,0v-18.1c0-0.3-0.3,0,0,0l35.1,0c0.3,0,0-0.3,0,0v18.1c0,0.3,0.3,0,0,0
	H160.8z"/>
<path class="st0" d="M228.9,298.9h-17.6c-0.3,0,0,0.3,0,0v-18.1c0-0.3-0.3,0,0,0h35.1c0.3,0,0-0.3,0,0l0,18.1c0,0.3,0.3,0,0,0H228.9
	z"/>
<path class="st0" d="M296.9,298.9h-17.6c-0.3,0,0,0.3,0,0v-18.1c0-0.3-0.3,0,0,0h35.1c0.3,0,0-0.3,0,0v18.1c0,0.3,0.3,0,0,0H296.9z"
	/>
<path class="st0" d="M364.9,298.9h-17.6c-0.3,0,0,0.3,0,0l0-18.1c0-0.3-0.3,0,0,0h35.1c0.3,0,0-0.3,0,0v18.1c0,0.3,0.3,0,0,0H364.9z
	"/>
<path class="st0" d="M433,298.9h-17.6c-0.3,0,0,0.3,0,0v-18.1c0-0.3-0.3,0,0,0h35.1c0.3,0,0-0.3,0,0v18.1c0,0.3,0.3,0,0,0H433z"/>
<path class="st0" d="M37.8,972.9l453.5,0c0.2,0,0.3-0.1,0.3-0.3v-45.1c0-0.3-0.3,0,0,0h16.7c0.2,0,0.3-0.1,0.3-0.3v-34
	c0-0.2-0.1-0.3-0.3-0.3h-16.7c-0.3,0,0,0.3,0,0v-33.4c0-0.3-0.3,0,0,0h16.7c0.2,0,0.3-0.1,0.3-0.3v-34c0-0.2-0.1-0.3-0.3-0.3h-16.7
	c-0.3,0,0,0.3,0,0l0-33.4c0-0.3-0.3,0,0,0h16.7c0.2,0,0.3-0.1,0.3-0.3v-34c0-0.2-0.1-0.3-0.3-0.3h-16.7c-0.3,0,0,0.3,0,0v-33.4
	c0-0.3-0.3,0,0,0l16.7,0c0.2,0,0.3-0.1,0.3-0.3v-34c0-0.2-0.1-0.3-0.3-0.3h-16.7c-0.3,0,0,0.3,0,0v-33.4c0-0.3-0.3,0,0,0h16.7
	c0.2,0,0.3-0.1,0.3-0.3v-34c0-0.2-0.1-0.3-0.3-0.3h-16.7c-0.3,0,0,0.3,0,0v-33.4c0-0.3-0.3,0,0,0h16.7c0.2,0,0.3-0.1,0.3-0.3l0-34
	c0-0.2-0.1-0.3-0.3-0.3h-16.7c-0.3,0,0,0.3,0,0v-33.4c0-0.3-0.3,0,0,0h16.7c0.2,0,0.3-0.1,0.3-0.3v-34c0-0.2-0.1-0.3-0.3-0.3h-16.7
	c-0.3,0,0,0.3,0,0v-33.4c0-0.3-0.3,0,0,0h16.7c0.2,0,0.3-0.1,0.3-0.3v-34c0-0.2-0.1-0.3-0.3-0.3h-16.7c-0.3,0,0,0.3,0,0v-33.4
	c0-0.3-0.3,0,0,0h16.7c0.2,0,0.3-0.1,0.3-0.3v-34c0-0.2-0.1-0.3-0.3-0.3l-16.7,0c-0.3,0,0,0.3,0,0v-33.4c0-0.3-0.3,0,0,0h16.7
	c0.2,0,0.3-0.1,0.3-0.3v-34c0-0.2-0.1-0.3-0.3-0.3h-16.7c-0.3,0,0,0.3,0,0v-33.4c0-0.3-0.3,0,0,0h16.7c0.2,0,0.3-0.1,0.3-0.3v-34
	c0-0.2-0.1-0.3-0.3-0.3h-16.7c-0.3,0,0,0.3,0,0l0-33.4c0-0.3-0.3,0,0,0h16.7c0.2,0,0.3-0.1,0.3-0.3v-34c0-0.2-0.1-0.3-0.3-0.3h-16.7
	c-0.3,0,0,0.3,0,0v-33.4c0-0.3-0.3,0,0,0h16.7c0.2,0,0.3-0.1,0.3-0.3v-34c0-0.2-0.1-0.3-0.3-0.3h-16.7c-0.3,0,0,0.3,0,0V31.5
	c0-0.2-0.1-0.3-0.3-0.3l-453.5,0c-0.2,0-0.3,0.1-0.3,0.3v45.1c0,0.3,0.3,0,0,0H20.7c-0.2,0-0.3,0.1-0.3,0.3v34
	c0,0.2,0.1,0.3,0.3,0.3h16.7c0.3,0,0-0.3,0,0v33.4c0,0.3,0.3,0,0,0H20.7c-0.2,0-0.3,0.1-0.3,0.3v34c0,0.2,0.1,0.3,0.3,0.3h16.7
	c0.3,0,0-0.3,0,0v33.4c0,0.3,0.3,0,0,0H20.7c-0.2,0-0.3,0.1-0.3,0.3v34c0,0.2,0.1,0.3,0.3,0.3h16.7c0.3,0,0-0.3,0,0v33.4
	c0,0.3,0.3,0,0,0H20.7c-0.2,0-0.3,0.1-0.3,0.3v34c0,0.2,0.1,0.3,0.3,0.3l16.7,0c0.3,0,0-0.3,0,0l0,33.4c0,0.3,0.3,0,0,0H20.7
	c-0.2,0-0.3,0.1-0.3,0.3v34c0,0.2,0.1,0.3,0.3,0.3h16.7c0.3,0,0-0.3,0,0v33.4c0,0.3,0.3,0,0,0H20.7c-0.2,0-0.3,0.1-0.3,0.3v34
	c0,0.2,0.1,0.3,0.3,0.3h16.7c0.3,0,0-0.3,0,0v33.4c0,0.3,0.3,0,0,0H20.7c-0.2,0-0.3,0.1-0.3,0.3v34c0,0.2,0.1,0.3,0.3,0.3h16.7
	c0.3,0,0-0.3,0,0v33.4c0,0.3,0.3,0,0,0H20.7c-0.2,0-0.3,0.1-0.3,0.3l0,34c0,0.2,0.1,0.3,0.3,0.3h16.7c0.3,0,0-0.3,0,0v33.4
	c0,0.3,0.3,0,0,0H20.7c-0.2,0-0.3,0.1-0.3,0.3v34c0,0.2,0.1,0.3,0.3,0.3h16.7c0.3,0,0-0.3,0,0v33.4c0,0.3,0.3,0,0,0H20.7
	c-0.2,0-0.3,0.1-0.3,0.3v34c0,0.2,0.1,0.3,0.3,0.3h16.7c0.3,0,0-0.3,0,0v33.4c0,0.3,0.3,0,0,0H20.7c-0.2,0-0.3,0.1-0.3,0.3v34
	c0,0.2,0.1,0.3,0.3,0.3h16.7c0.3,0,0-0.3,0,0v33.4c0,0.3,0.3,0,0,0l-16.7,0c-0.2,0-0.3,0.1-0.3,0.3v34c0,0.2,0.1,0.3,0.3,0.3h16.7
	c0.3,0,0-0.3,0,0v33.4c0,0.3,0.3,0,0,0H20.7c-0.2,0-0.3,0.1-0.3,0.3v34c0,0.2,0.1,0.3,0.3,0.3h16.7c0.3,0,0-0.3,0,0l0,45.1
	C37.5,972.7,37.6,972.9,37.8,972.9z"/>
<path class="st0" d="M1096.1,298.9h-17.6c-0.3,0,0,0.3,0,0v-18.1c0-0.3-0.3,0,0,0h35.1c0.3,0,0-0.3,0,0v18.1c0,0.3,0.3,0,0,0H1096.1
	z"/>
<path class="st0" d="M1164.1,298.9h-17.6c-0.3,0,0,0.3,0,0v-18.1c0-0.3-0.3,0,0,0h35.1c0.3,0,0-0.3,0,0v18.1c0,0.3,0.3,0,0,0H1164.1
	z"/>
<path class="st0" d="M1232.1,298.9h-17.6c-0.3,0,0,0.3,0,0v-18.1c0-0.3-0.3,0,0,0h35.1c0.3,0,0-0.3,0,0v18.1c0,0.3,0.3,0,0,0H1232.1
	z"/>
<path class="st0" d="M1300.2,298.9h-17.6c-0.3,0,0,0.3,0,0v-18.1c0-0.3-0.3,0,0,0h35.1c0.3,0,0-0.3,0,0v18.1c0,0.3,0.3,0,0,0H1300.2
	z"/>
<path class="st0" d="M1368.2,298.9h-17.6c-0.3,0,0,0.3,0,0v-18.1c0-0.3-0.3,0,0,0h35.1c0.3,0,0-0.3,0,0v18.1c0,0.3,0.3,0,0,0H1368.2
	z"/>
<path class="st0" d="M1436.2,298.9h-17.6c-0.3,0,0,0.3,0,0v-18.1c0-0.3-0.3,0,0,0h35.1c0.3,0,0-0.3,0,0v18.1c0,0.3,0.3,0,0,0H1436.2
	z"/>
<path class="st0" d="M1039.8,972.9h453.5c0.2,0,0.3-0.1,0.3-0.3v-45.1c0-0.3-0.3,0,0,0h16.7c0.2,0,0.3-0.1,0.3-0.3v-34
	c0-0.2-0.1-0.3-0.3-0.3h-16.7c-0.3,0,0,0.3,0,0v-33.4c0-0.3-0.3,0,0,0h16.7c0.2,0,0.3-0.1,0.3-0.3v-34c0-0.2-0.1-0.3-0.3-0.3h-16.7
	c-0.3,0,0,0.3,0,0v-33.4c0-0.3-0.3,0,0,0h16.7c0.2,0,0.3-0.1,0.3-0.3v-34c0-0.2-0.1-0.3-0.3-0.3h-16.7c-0.3,0,0,0.3,0,0v-33.4
	c0-0.3-0.3,0,0,0h16.7c0.2,0,0.3-0.1,0.3-0.3v-34c0-0.2-0.1-0.3-0.3-0.3h-16.7c-0.3,0,0,0.3,0,0v-33.4c0-0.3-0.3,0,0,0h16.7
	c0.2,0,0.3-0.1,0.3-0.3v-34c0-0.2-0.1-0.3-0.3-0.3h-16.7c-0.3,0,0,0.3,0,0v-33.4c0-0.3-0.3,0,0,0h16.7c0.2,0,0.3-0.1,0.3-0.3v-34
	c0-0.2-0.1-0.3-0.3-0.3h-16.7c-0.3,0,0,0.3,0,0v-33.4c0-0.3-0.3,0,0,0h16.7c0.2,0,0.3-0.1,0.3-0.3v-34c0-0.2-0.1-0.3-0.3-0.3h-16.7
	c-0.3,0,0,0.3,0,0v-33.4c0-0.3-0.3,0,0,0h16.7c0.2,0,0.3-0.1,0.3-0.3v-34c0-0.2-0.1-0.3-0.3-0.3h-16.7c-0.3,0,0,0.3,0,0v-33.4
	c0-0.3-0.3,0,0,0h16.7c0.2,0,0.3-0.1,0.3-0.3v-34c0-0.2-0.1-0.3-0.3-0.3h-16.7c-0.3,0,0,0.3,0,0v-33.4c0-0.3-0.3,0,0,0h16.7
	c0.2,0,0.3-0.1,0.3-0.3v-34c0-0.2-0.1-0.3-0.3-0.3h-16.7c-0.3,0,0,0.3,0,0v-33.4c0-0.3-0.3,0,0,0h16.7c0.2,0,0.3-0.1,0.3-0.3v-34
	c0-0.2-0.1-0.3-0.3-0.3h-16.7c-0.3,0,0,0.3,0,0v-33.4c0-0.3-0.3,0,0,0h16.7c0.2,0,0.3-0.1,0.3-0.3v-34c0-0.2-0.1-0.3-0.3-0.3h-16.7
	c-0.3,0,0,0.3,0,0v-33.4c0-0.3-0.3,0,0,0h16.7c0.2,0,0.3-0.1,0.3-0.3v-34c0-0.2-0.1-0.3-0.3-0.3h-16.7c-0.3,0,0,0.3,0,0V31.5
	c0-0.2-0.1-0.3-0.3-0.3h-453.5c-0.2,0-0.3,0.1-0.3,0.3v45.1c0,0.3,0.3,0,0,0h-16.7c-0.2,0-0.3,0.1-0.3,0.3v34c0,0.2,0.1,0.3,0.3,0.3
	h16.7c0.3,0,0-0.3,0,0v33.4c0,0.3,0.3,0,0,0h-16.7c-0.2,0-0.3,0.1-0.3,0.3v34c0,0.2,0.1,0.3,0.3,0.3h16.7c0.3,0,0-0.3,0,0v33.4
	c0,0.3,0.3,0,0,0h-16.7c-0.2,0-0.3,0.1-0.3,0.3v34c0,0.2,0.1,0.3,0.3,0.3h16.7c0.3,0,0-0.3,0,0v33.4c0,0.3,0.3,0,0,0h-16.7
	c-0.2,0-0.3,0.1-0.3,0.3v34c0,0.2,0.1,0.3,0.3,0.3h16.7c0.3,0,0-0.3,0,0v33.4c0,0.3,0.3,0,0,0h-16.7c-0.2,0-0.3,0.1-0.3,0.3v34
	c0,0.2,0.1,0.3,0.3,0.3h16.7c0.3,0,0-0.3,0,0v33.4c0,0.3,0.3,0,0,0h-16.7c-0.2,0-0.3,0.1-0.3,0.3v34c0,0.2,0.1,0.3,0.3,0.3h16.7
	c0.3,0,0-0.3,0,0v33.4c0,0.3,0.3,0,0,0h-16.7c-0.2,0-0.3,0.1-0.3,0.3v34c0,0.2,0.1,0.3,0.3,0.3h16.7c0.3,0,0-0.3,0,0v33.4
	c0,0.3,0.3,0,0,0h-16.7c-0.2,0-0.3,0.1-0.3,0.3v34c0,0.2,0.1,0.3,0.3,0.3h16.7c0.3,0,0-0.3,0,0v33.4c0,0.3,0.3,0,0,0h-16.7
	c-0.2,0-0.3,0.1-0.3,0.3v34c0,0.2,0.1,0.3,0.3,0.3h16.7c0.3,0,0-0.3,0,0v33.4c0,0.3,0.3,0,0,0h-16.7c-0.2,0-0.3,0.1-0.3,0.3v34
	c0,0.2,0.1,0.3,0.3,0.3h16.7c0.3,0,0-0.3,0,0v33.4c0,0.3,0.3,0,0,0h-16.7c-0.2,0-0.3,0.1-0.3,0.3v34c0,0.2,0.1,0.3,0.3,0.3h16.7
	c0.3,0,0-0.3,0,0v33.4c0,0.3,0.3,0,0,0h-16.7c-0.2,0-0.3,0.1-0.3,0.3v34c0,0.2,0.1,0.3,0.3,0.3h16.7c0.3,0,0-0.3,0,0v33.4
	c0,0.3,0.3,0,0,0h-16.7c-0.2,0-0.3,0.1-0.3,0.3v34c0,0.2,0.1,0.3,0.3,0.3h16.7c0.3,0,0-0.3,0,0v45.1
	C1039.5,972.7,1039.6,972.9,1039.8,972.9z"/>
<rect x="1538.1" y="303.5" class="st1" width="68" height="68"/>
<rect x="1538.1" y="213.1" class="st1" width="68" height="68"/>
<rect x="1538.1" y="122.6" class="st1" width="68" height="68"/>
<rect x="1538.1" y="32.1" class="st1" width="68" height="68"/>
<line class="st2" x1="264.5" y1="31.5" x2="491.6" y2="76.5"/>
<line class="st2" x1="491.6" y1="144.6" x2="264.5" y2="31.5"/>
<line class="st2" x1="491.6" y1="212.6" x2="264.5" y2="31.5"/>
<line class="st2" x1="491.6" y1="280.6" x2="264.5" y2="31.5"/>
<line class="st2" x1="491.6" y1="348.7" x2="264.5" y2="31.5"/>
<line class="st2" x1="37.5" y1="76.5" x2="264.5" y2="31.5"/>
<line class="st2" x1="37.5" y1="144.6" x2="264.5" y2="31.5"/>
<line class="st2" x1="37.5" y1="212.6" x2="264.5" y2="31.5"/>
<line class="st2" x1="37.5" y1="280.6" x2="264.5" y2="31.5"/>
<line class="st2" x1="37.5" y1="348.7" x2="264.5" y2="31.5"/>
<line class="st2" x1="765.5" y1="31.2" x2="992.6" y2="76.3"/>
<line class="st2" x1="992.6" y1="144.3" x2="765.5" y2="31.2"/>
<line class="st2" x1="992.6" y1="212.3" x2="765.5" y2="31.2"/>
<line class="st2" x1="992.6" y1="280.3" x2="765.5" y2="31.2"/>
<line class="st2" x1="992.6" y1="348.4" x2="765.5" y2="31.2"/>
<line class="st2" x1="538.5" y1="76.3" x2="765.5" y2="31.2"/>
<line class="st2" x1="538.5" y1="144.3" x2="765.5" y2="31.2"/>
<line class="st2" x1="538.5" y1="212.3" x2="765.5" y2="31.2"/>
<line class="st2" x1="538.5" y1="280.3" x2="765.5" y2="31.2"/>
<line class="st2" x1="538.5" y1="348.4" x2="765.5" y2="31.2"/>
<line class="st2" x1="1266.6" y1="31.5" x2="1493.6" y2="76.5"/>
<line class="st2" x1="1493.6" y1="144.6" x2="1266.6" y2="31.5"/>
<line class="st2" x1="1493.6" y1="212.6" x2="1266.6" y2="31.5"/>
<line class="st2" x1="1493.6" y1="280.6" x2="1266.6" y2="31.5"/>
<line class="st2" x1="1493.6" y1="348.7" x2="1266.6" y2="31.5"/>
<line class="st2" x1="1039.5" y1="76.5" x2="1266.6" y2="31.5"/>
<line class="st2" x1="1039.5" y1="144.6" x2="1266.6" y2="31.5"/>
<line class="st2" x1="1039.5" y1="212.6" x2="1266.6" y2="31.5"/>
<line class="st2" x1="1039.5" y1="280.6" x2="1266.6" y2="31.5"/>
<line class="st2" x1="1039.5" y1="348.7" x2="1266.6" y2="31.5"/>
<path class="st1" d="M111.4,1104.7l-2.2-1.9c-48.3-39.3-61.4-53.2-61.4-75.7c0-18.7,15-33.7,33.7-33.7c15.4,0,24,8.6,30,15.4
	c6-6.7,14.6-15.4,30-15.4c18.7,0,33.7,15,33.7,33.7c0,22.5-13.1,36.3-61.4,75.7L111.4,1104.7z"/>
<path class="st1" d="M269.1,1104.7l-2.2-1.9c-48.3-39.3-61.4-53.2-61.4-75.7c0-18.7,15-33.7,33.7-33.7c15.4,0,24,8.6,30,15.4
	c6-6.7,14.6-15.4,30-15.4c18.7,0,33.7,15,33.7,33.7c0,22.5-13.1,36.3-61.4,75.7L269.1,1104.7z"/>
<path class="st1" d="M441.5,1104.7l-2.2-1.9c-48.3-39.3-61.4-53.2-61.4-75.7c0-18.7,15-33.7,33.7-33.7c15.4,0,24,8.6,30,15.4
	c6-6.7,14.6-15.4,30-15.4c18.7,0,33.7,15,33.7,33.7c0,22.5-13.1,36.3-61.4,75.7L441.5,1104.7z"/>
<path class="st1" d="M605.5,1104.7l-2.2-1.9c-48.3-39.3-61.4-53.2-61.4-75.7c0-18.7,15-33.7,33.7-33.7c15.4,0,24,8.6,30,15.4
	c6-6.7,14.6-15.4,30-15.4c18.7,0,33.7,15,33.7,33.7c0,22.5-13.1,36.3-61.4,75.7L605.5,1104.7z"/>
<path class="st1" d="M765.5,1104.7l-2.2-1.9c-48.3-39.3-61.4-53.2-61.4-75.7c0-18.7,15-33.7,33.7-33.7c15.4,0,24,8.6,30,15.4
	c6-6.7,14.6-15.4,30-15.4c18.7,0,33.7,15,33.7,33.7c0,22.5-13.1,36.3-61.4,75.7L765.5,1104.7z"/>
<path class="st1" d="M927.3,1104.7l-2.2-1.9c-48.3-39.3-61.4-53.2-61.4-75.7c0-18.7,15-33.7,33.7-33.7c15.4,0,24,8.6,30,15.4
	c6-6.7,14.6-15.4,30-15.4c18.7,0,33.7,15,33.7,33.7c0,22.5-13.1,36.3-61.4,75.7L927.3,1104.7z"/>
<path class="st1" d="M1089,1104.7l-2.2-1.9c-48.3-39.3-61.4-53.2-61.4-75.7c0-18.7,15-33.7,33.7-33.7c15.4,0,24,8.6,30,15.4
	c6-6.7,14.6-15.4,30-15.4c18.7,0,33.7,15,33.7,33.7c0,22.5-13.1,36.3-61.4,75.7L1089,1104.7z"/>
<path class="st1" d="M1244.6,1104.7l-2.2-1.9c-48.3-39.3-61.4-53.2-61.4-75.7c0-18.7,15-33.7,33.7-33.7c15.4,0,24,8.6,30,15.4
	c6-6.7,14.6-15.4,30-15.4c18.7,0,33.7,15,33.7,33.7c0,22.5-13.1,36.3-61.4,75.7L1244.6,1104.7z"/>
<path class="st1" d="M1400.8,1104.7l-2.2-1.9c-48.3-39.3-61.4-53.2-61.4-75.7c0-18.7,15-33.7,33.7-33.7c15.4,0,24,8.6,30,15.4
	c6-6.7,14.6-15.4,30-15.4c18.7,0,33.7,15,33.7,33.7c0,22.5-13.1,36.3-61.4,75.7L1400.8,1104.7z"/>
<path class="st1" d="M1557.7,1104.7l-2.2-1.9c-48.3-39.3-61.4-53.2-61.4-75.7c0-18.7,15-33.7,33.7-33.7c15.4,0,24,8.6,30,15.4
	c6-6.7,14.6-15.4,30-15.4c18.7,0,33.7,15,33.7,33.7c0,22.5-13.1,36.3-61.4,75.7L1557.7,1104.7z"/>
<path class="st1" d="M1600.9,952.5l-2.2-1.9c-48.3-39.3-61.4-53.2-61.4-75.7c0-18.7,15-33.7,33.7-33.7c15.4,0,24,8.6,30,15.4
	c6-6.7,14.6-15.4,30-15.4c18.7,0,33.7,15,33.7,33.7c0,22.5-13.1,36.3-61.4,75.7L1600.9,952.5z"/>
<path class="st1" d="M1600.9,800.4l-2.2-1.9c-48.3-39.3-61.4-53.2-61.4-75.7c0-18.7,15-33.7,33.7-33.7c15.4,0,24,8.6,30,15.4
	c6-6.7,14.6-15.4,30-15.4c18.7,0,33.7,15,33.7,33.7c0,22.5-13.1,36.3-61.4,75.7L1600.9,800.4z"/>
<path class="st1" d="M1596.6,652.9l-2.2-1.9c-48.3-39.3-61.4-53.2-61.4-75.7c0-18.7,15-33.7,33.7-33.7c15.4,0,24,8.6,30,15.4
	c6-6.7,14.6-15.4,30-15.4c18.7,0,33.7,15,33.7,33.7c0,22.5-13.1,36.3-61.4,75.7L1596.6,652.9z"/>
<path class="st1" d="M1606.1,512.2l-2.2-1.9c-48.3-39.3-61.4-53.2-61.4-75.7c0-18.7,15-33.7,33.7-33.7c15.4,0,24,8.6,30,15.4
	c6-6.7,14.6-15.4,30-15.4c18.7,0,33.7,15,33.7,33.7c0,22.5-13.1,36.3-61.4,75.7L1606.1,512.2z"/>
</svg>
